<svg xmlns="http://www.w3.org/2000/svg" viewBox="0 0 512 512" role="img" aria-labelledby="title desc">
  <title id="title">Honda VSO Builder icon</title>
  <desc id="desc">A red app icon with a white VSO monogram and a simple vehicle line.</desc>
  <defs>
    <linearGradient id="bg" x1="96" x2="416" y1="64" y2="448" gradientUnits="userSpaceOnUse">
      <stop offset="0" stop-color="#f04452"/>
      <stop offset="0.55" stop-color="#c8102e"/>
      <stop offset="1" stop-color="#7d0b1c"/>
    </linearGradient>
    <filter id="softShadow" x="-20%" y="-20%" width="140%" height="140%">
      <feDropShadow dx="0" dy="18" stdDeviation="18" flood-color="#5f0715" flood-opacity="0.35"/>
    </filter>
  </defs>
  <rect width="512" height="512" rx="108" fill="url(#bg)"/>
  <path d="M116 172c28-42 64-64 110-64h69c45 0 83 24 112 70" fill="none" stroke="#fff" stroke-linecap="round" stroke-width="24" opacity="0.92"/>
  <path d="M90 207h332c18 0 33 15 33 33v28c0 18-15 33-33 33H90c-18 0-33-15-33-33v-28c0-18 15-33 33-33Z" fill="#fff" opacity="0.96" filter="url(#softShadow)"/>
  <path d="M135 301h242" fill="none" stroke="#fff" stroke-linecap="round" stroke-width="18" opacity="0.92"/>
  <circle cx="143" cy="315" r="28" fill="#fff"/>
  <circle cx="369" cy="315" r="28" fill="#fff"/>
  <circle cx="143" cy="315" r="13" fill="#c8102e"/>
  <circle cx="369" cy="315" r="13" fill="#c8102e"/>
  <text x="256" y="274" fill="#c8102e" font-family="Arial, Helvetica, sans-serif" font-size="96" font-weight="800" letter-spacing="0" text-anchor="middle">VSO</text>
  <path d="M159 376h194" fill="none" stroke="#fff" stroke-linecap="round" stroke-width="16" opacity="0.9"/>
  <path d="M190 408h132" fill="none" stroke="#fff" stroke-linecap="round" stroke-width="10" opacity="0.68"/>
</svg>
